<svg xmlns="http://www.w3.org/2000/svg" version="1.1" xmlns:xlink="http://www.w3.org/1999/xlink" viewBox="0 0 200 200"><rect width="200" height="200" fill="url('#gradient')"></rect><defs><linearGradient id="gradient" gradientTransform="rotate(6 0.5 0.5)"><stop offset="0%" stop-color="#dee90b"></stop><stop offset="100%" stop-color="#d9e241"></stop></linearGradient></defs><g><g fill="#1b3855" transform="matrix(2.3585412667946257,0,0,2.3585412667946257,8.798217245804835,112.65478452290775)" stroke="#0e5278" stroke-width="0.2"><path d="M5.39-2.34L5.39-2.34Q6.08-2.34 6.46-2.72Q6.85-3.10 6.84-3.77L6.84-3.77L9.92-3.77Q9.92-2.03 8.68-0.92Q7.43 0.20 5.47 0.20L5.47 0.20Q3.16 0.20 1.84-1.25Q0.51-2.70 0.51-5.25L0.51-5.25L0.51-5.39Q0.51-6.99 1.10-8.22Q1.69-9.44 2.80-10.10Q3.92-10.76 5.44-10.76L5.44-10.76Q7.50-10.76 8.71-9.62Q9.92-8.48 9.92-6.52L9.92-6.52L6.84-6.52Q6.84-7.34 6.44-7.78Q6.04-8.22 5.36-8.22L5.36-8.22Q4.08-8.22 3.87-6.59L3.87-6.59Q3.80-6.07 3.80-5.17L3.80-5.17Q3.80-3.57 4.18-2.96Q4.56-2.34 5.39-2.34ZM20.56 0L17.27 0Q17.09-0.32 16.95-0.95L16.95-0.95Q16.04 0.20 14.41 0.20L14.41 0.20Q12.92 0.20 11.88-0.71Q10.83-1.61 10.83-2.98L10.83-2.98Q10.83-4.70 12.10-5.58Q13.37-6.46 15.79-6.46L15.79-6.46L16.81-6.46L16.81-7.01Q16.81-8.47 15.55-8.47L15.55-8.47Q14.38-8.47 14.38-7.31L14.38-7.31L11.08-7.31Q11.08-8.85 12.39-9.80Q13.69-10.76 15.71-10.76Q17.73-10.76 18.91-9.78Q20.08-8.79 20.11-7.07L20.11-7.07L20.11-2.39Q20.13-0.94 20.56-0.17L20.56-0.17L20.56 0ZM15.21-2.15L15.21-2.15Q15.82-2.15 16.23-2.41Q16.63-2.68 16.81-3.01L16.81-3.01L16.81-4.70L15.85-4.70Q14.13-4.70 14.13-3.15L14.13-3.15Q14.13-2.71 14.43-2.43Q14.74-2.15 15.21-2.15ZM21.95-10.57L25.04-10.57L25.15-9.33Q26.27-10.76 28.16-10.76L28.16-10.76Q30.17-10.76 30.87-9.17L30.87-9.17Q31.94-10.76 33.97-10.76L33.97-10.76Q37.19-10.76 37.28-6.88L37.28-6.88L37.28 0L33.97 0L33.97-6.67Q33.97-7.48 33.70-7.85Q33.43-8.22 32.71-8.22L32.71-8.22Q31.73-8.22 31.25-7.35L31.25-7.35L31.26-7.22L31.26 0L27.96 0L27.96-6.65Q27.96-7.48 27.70-7.85Q27.43-8.22 26.69-8.22L26.69-8.22Q25.74-8.22 25.24-7.35L25.24-7.35L25.24 0L21.95 0L21.95-10.57ZM48.96-5.36L48.96-5.21Q48.96-2.74 47.86-1.27Q46.75 0.20 44.86 0.20L44.86 0.20Q43.41 0.20 42.47-0.87L42.47-0.87L42.47 4.06L39.18 4.06L39.18-10.57L42.26-10.57L42.35-9.59Q43.30-10.76 44.84-10.76L44.84-10.76Q46.80-10.76 47.88-9.32Q48.96-7.88 48.96-5.36L48.96-5.36ZM45.67-5.06L45.67-5.41Q45.67-8.22 44.03-8.22L44.03-8.22Q42.86-8.22 42.47-7.38L42.47-7.38L42.47-3.22Q42.90-2.34 44.05-2.34L44.05-2.34Q45.63-2.34 45.67-5.06L45.67-5.06ZM53.89-10.57L53.89 0L50.59 0L50.59-10.57L53.89-10.57ZM50.39-13.29L50.39-13.29Q50.39-13.99 50.90-14.44Q51.41-14.89 52.22-14.89Q53.03-14.89 53.54-14.44Q54.04-13.99 54.04-13.29Q54.04-12.59 53.54-12.14Q53.03-11.69 52.22-11.69Q51.41-11.69 50.90-12.14Q50.39-12.59 50.39-13.29ZM55.85-10.57L58.94-10.57L59.04-9.33Q60.14-10.76 62.06-10.76L62.06-10.76Q63.71-10.76 64.53-9.78Q65.34-8.79 65.37-6.81L65.37-6.81L65.37 0L62.07 0L62.07-6.67Q62.07-7.47 61.75-7.85Q61.43-8.22 60.58-8.22L60.58-8.22Q59.61-8.22 59.14-7.46L59.14-7.46L59.14 0L55.85 0L55.85-10.57ZM66.81-5.24L66.81-5.36Q66.81-6.96 67.33-8.19Q67.86-9.42 68.85-10.09Q69.83-10.76 71.14-10.76L71.14-10.76Q72.79-10.76 73.72-9.65L73.72-9.65L73.84-10.57L76.83-10.57L76.83-0.40Q76.83 1.00 76.18 2.03Q75.53 3.06 74.30 3.61Q73.07 4.16 71.45 4.16L71.45 4.16Q70.28 4.16 69.19 3.72Q68.11 3.28 67.53 2.58L67.53 2.58L68.91 0.64Q69.82 1.73 71.33 1.73L71.33 1.73Q73.52 1.73 73.52-0.52L73.52-0.52L73.52-0.85Q72.57 0.20 71.12 0.20L71.12 0.20Q69.19 0.20 68.00-1.28Q66.81-2.76 66.81-5.24L66.81-5.24ZM70.11-5.16L70.11-5.16Q70.11-3.86 70.60-3.10Q71.08-2.34 71.96-2.34L71.96-2.34Q73.03-2.34 73.52-3.06L73.52-3.06L73.52-7.50Q73.04-8.22 71.98-8.22L71.98-8.22Q71.10-8.22 70.61-7.44Q70.11-6.65 70.11-5.16Z"></path></g></g></svg>